<svg width="900" height="900" viewBox="0 0 900 900" fill="none" xmlns="http://www.w3.org/2000/svg">
<!-- <rect width="900" height="900" fill="#E5E5E5"/> -->
<rect width="900" height="900" rx="450" fill="#211F1F"/>
<g filter="url(#filter0_d_0:1)">
<path d="M712.504 737.644C665.895 735.154 620.914 719.666 582.652 692.933C544.391 666.2 514.378 629.29 496.01 586.381C477.642 543.471 471.654 496.277 478.722 450.14C485.791 404.003 505.634 360.766 536.006 325.324L583.464 365.993C560.685 392.575 545.803 425.002 540.501 459.605C535.2 494.208 539.691 529.604 553.467 561.785C567.243 593.967 589.753 621.65 618.449 641.7C647.145 661.75 680.881 673.366 715.837 675.233L712.504 737.644Z" fill="white"/>
<path d="M174.097 285.097C186.301 272.893 206.087 272.893 218.291 285.097L280.163 346.969C292.367 359.173 292.367 378.959 280.163 391.163V391.163C267.959 403.367 248.173 403.367 235.969 391.163L174.097 329.291C161.893 317.087 161.893 297.301 174.097 285.097V285.097Z" fill="white"/>
<path d="M621.696 332.629C651.555 370.269 669.936 415.717 674.639 463.531C679.341 511.346 670.166 559.503 648.211 602.239C626.256 644.975 592.452 680.48 550.844 704.503C509.236 728.527 461.586 740.053 413.598 737.7C365.61 735.348 319.317 719.217 280.258 691.239C241.199 663.261 211.029 624.621 193.36 579.942C175.69 535.264 171.269 486.44 180.625 439.315C189.982 392.189 212.719 348.758 246.117 314.218L291.048 357.664C265.999 383.568 248.946 416.142 241.929 451.486C234.911 486.83 238.227 523.448 251.479 556.957C264.732 590.466 287.359 619.446 316.653 640.429C345.947 661.413 380.668 673.511 416.659 675.275C452.649 677.039 488.386 668.395 519.593 650.378C550.799 632.36 576.152 605.732 592.618 573.68C609.084 541.628 615.965 505.51 612.439 469.649C608.912 433.787 595.126 399.702 572.732 371.472L621.696 332.629Z" fill="white"/>
<path d="M356.839 360.5C356.839 395.018 328.857 423 294.339 423C259.821 423 231.839 395.018 231.839 360.5C231.839 325.982 259.821 298 294.339 298C328.857 298 356.839 325.982 356.839 360.5Z" fill="white"/>
<path d="M638.839 223.5C638.839 258.018 610.857 286 576.339 286C541.821 286 513.839 258.018 513.839 223.5C513.839 188.982 541.821 161 576.339 161C610.857 161 638.839 188.982 638.839 223.5Z" fill="white"/>
<path d="M747.339 706.25C747.339 723.509 733.348 737.5 716.089 737.5C698.83 737.5 684.839 723.509 684.839 706.25C684.839 688.991 698.83 675 716.089 675C733.348 675 747.339 688.991 747.339 706.25Z" fill="white"/>
<path d="M538.537 377.861C543.609 371.816 550.039 367.058 557.302 363.975C564.566 360.892 572.455 359.571 580.327 360.122C588.198 360.672 595.827 363.078 602.591 367.142C609.354 371.206 615.06 376.813 619.241 383.504L595.014 398.643C593.222 395.775 590.776 393.372 587.877 391.63C584.978 389.888 581.708 388.857 578.334 388.621C574.96 388.385 571.578 388.951 568.465 390.272C565.352 391.594 562.595 393.633 560.421 396.224L538.537 377.861Z" fill="white"/>
<path d="M598.056 409.394C608.841 404.603 617.74 396.381 623.367 386.007C628.993 375.634 631.032 363.691 629.165 352.038C627.299 340.385 621.631 329.676 613.046 321.579C604.461 313.482 593.439 308.451 581.697 307.269C569.955 306.087 558.151 308.821 548.124 315.045C538.097 321.268 530.41 330.633 526.258 341.68C522.107 352.727 521.725 364.837 525.171 376.124C528.618 387.411 535.699 397.242 545.314 404.085L576.339 360.5L598.056 409.394Z" fill="white"/>
</g>
<defs>
<filter id="filter0_d_0:1" x="148" y="161" width="603.339" height="585" filterUnits="userSpaceOnUse" color-interpolation-filters="sRGB">
<feFlood flood-opacity="0" result="BackgroundImageFix"/>
<feColorMatrix in="SourceAlpha" type="matrix" values="0 0 0 0 0 0 0 0 0 0 0 0 0 0 0 0 0 0 127 0" result="hardAlpha"/>
<feOffset dy="4"/>
<feGaussianBlur stdDeviation="2"/>
<feColorMatrix type="matrix" values="0 0 0 0 0 0 0 0 0 0 0 0 0 0 0 0 0 0 0.25 0"/>
<feBlend mode="normal" in2="BackgroundImageFix" result="effect1_dropShadow_0:1"/>
<feBlend mode="normal" in="SourceGraphic" in2="effect1_dropShadow_0:1" result="shape"/>
</filter>
</defs>
</svg>
